<?xml version="1.0" encoding="utf-8"?>
<!-- Generator: Adobe Illustrator 17.1.0, SVG Export Plug-In . SVG Version: 6.00 Build 0)  -->
<!DOCTYPE svg PUBLIC "-//W3C//DTD SVG 1.1//EN" "http://www.w3.org/Graphics/SVG/1.1/DTD/svg11.dtd">
<svg version="1.1" id="Layer_1" xmlns="http://www.w3.org/2000/svg" xmlns:xlink="http://www.w3.org/1999/xlink" x="0px" y="0px"
	 viewBox="0 0 1224 792" enable-background="new 0 0 1224 792" xml:space="preserve">
<path d="M309-5.6c-27.3,2.4-56.3-1-74.5-8.1c-21.3-8.2-33.7-19.5-53.7-9.2c0.3-8.6-4.8-22.8-17.5-28.7c1.6-1.3,2.6-3.3,2.6-5.5
	c0-3.9-3.2-7.1-7.1-7.1c-3.9,0-7.1,3.2-7.1,7.1c0,1,0.2,2,0.6,2.9c-15.3-0.9-22.8,6.4-27.4,16.6c-1.2-3.3-4.4-5.6-8.1-5.6
	c-4.8,0-8.7,3.9-8.7,8.7s3.9,8.7,8.7,8.7c1.6,0,3.2-0.5,4.5-1.3c-1.4,5.6-5,21.3-23.8,21.8c-15.4,0.3-26.2-8.5-36.1-24
	c-2,2.7-2.9,5.8-2.2,8.9c-7.7-0.7-16.5,1.9-21.3,7.6c-0.7,0.1-1.5,0.2-2.3,0.3C30.6-27.2,16.6-37.7,0.2-37.7v0
	c-20.9,0-37.8,16.9-37.8,37.8c0,20.9,16.9,37.8,37.8,37.8c16.5,0,30.4-10.5,35.6-25.2c0.7,0.1,1.6,0.2,2.3,0.3
	c4.9,5.7,13.6,8.4,21.3,7.6c-0.7,3.1,0.2,6.2,2.2,8.9C71.5,14,82.3,5.2,97.7,5.5c18.8,0.4,22.3,16.1,23.8,21.8
	c-1.3-0.8-2.8-1.3-4.5-1.3c-4.8,0-8.7,3.9-8.7,8.7c0,4.8,3.9,8.7,8.7,8.7c3.7,0,6.9-2.3,8.1-5.6c4.6,10.2,12.1,17.5,27.4,16.6
	c-0.4,0.9-0.6,1.9-0.6,2.9c0,3.9,3.2,7.1,7.1,7.1c3.9,0,7.1-3.2,7.1-7.1c0-2.2-1-4.2-2.6-5.5c12.7-5.9,17.8-20.1,17.5-28.7
	c20,10.3,32.4-1,53.7-9.2c18.2-7.1,47.2-10.4,74.5-8.1c0.6-2.1,2.7-4.1,4.6-5.7C311.7-1.5,309.7-3.5,309-5.6z M0,6c-3.3,0-6-2.7-6-6
	s2.7-6,6-6c3.3,0,6,2.7,6,6S3.3,6,0,6z M54.9,10.9c-5.6,1-13-1.5-13-10.9c0-9.3,7.5-11.8,13-10.9C63.1-9.4,66.3-1.2,78.3,0
	C66.3,1.3,63.1,9.5,54.9,10.9z M134.3-20.1c4.8,1,9.5-2.2,10.5-7c1-4.8-2.2-9.5-7-10.5c-2.2-0.4-4.4,0-6.2,1
	c4.4-8.2,13.8-12.9,23.4-11h0c11.8,2.3,19.5,13.8,17.2,25.6c-1.3,6.8-5.7,12.2-11.4,15.2c-4.2,2.2-9.1,3-14.1,2
	c-2.7-0.5-5.2-1.6-7.4-3c-5.4-3.4-9-9-9.9-15.3C130.5-21.6,132.2-20.5,134.3-20.1z M122.6,14.1C119,8.2,114,3.5,107.7,0
	c6.3-3.4,11.2-8.1,14.9-14c3.6,5.8,8.8,10.7,14.9,14C131.4,3.4,126.2,8.3,122.6,14.1z M155,47.7L155,47.7c-9.6,1.9-18.9-2.8-23.4-11
	c1.8,1,4,1.4,6.2,1c4.8-1,8-5.6,7-10.5c-1-4.8-5.6-8-10.5-7c-2.1,0.4-3.8,1.5-5.1,3c0.9-6.3,4.6-11.9,9.9-15.3
	c2.2-1.4,4.7-2.4,7.4-3c5-1,9.9-0.2,14.1,2c5.7,2.9,10.1,8.4,11.4,15.2C174.4,33.9,166.7,45.3,155,47.7z M194.8,20.9
	c-8.9-1.3-16.9-15.5-27.7-20.9c10.8-5.3,18.8-19.5,27.7-20.9c8.9-1.3,14.8,4.2,15.1,9.3C210-8.6,198.4-7.3,203,0
	c-4.6,7.4,7,8.6,6.8,11.5C209.5,16.7,203.6,22.2,194.8,20.9z M242.1,5.8c-8.8,1.2-20.4,5.7-28.6,11.1c1.9-6.9,0.7-14-3.9-16.9
	c4.7-2.9,5.9-10,3.9-16.9c8.2,5.4,19.8,9.9,28.6,11.1c-1.5,1.5-2.4,3.8-2.4,5.8C239.8,2,240.6,4.3,242.1,5.8z"/>
</svg>
