<?xml version="1.0" encoding="utf-8"?>
<!-- Generator: Adobe Illustrator 17.1.0, SVG Export Plug-In . SVG Version: 6.00 Build 0)  -->
<!DOCTYPE svg PUBLIC "-//W3C//DTD SVG 1.1//EN" "http://www.w3.org/Graphics/SVG/1.1/DTD/svg11.dtd">
<svg version="1.1" id="Layer_1" xmlns="http://www.w3.org/2000/svg" xmlns:xlink="http://www.w3.org/1999/xlink" x="0px" y="0px"
	 viewBox="0 0 1224 792" enable-background="new 0 0 1224 792" xml:space="preserve">
<path d="M522.1-4.1c-13.6-0.3-114.4-2.4-121.3-2.3c-7.4,0.1-30.9-12.2-30.9-12.2l2,14.7c0,0-42.8-6.3-82.9-2.6c-0.6-4.5-1-9.1-1-9.1
	l-7.3,5c0,0-4.4-6.5-7.3-10.6c-13.8,42-66.9,46.9-89.6-1.9c-1.5,3.1-4,8.3-4,8.3l-3.4-3.6c0,0-2.2,2.3-4.7,5.1
	c-16.4-10.7-38-2.4-38-2.4l-2.2-11.1l-9.8,10.1l-3.8-7.4l-9,8.8c0,0-13.1-20.4-25.7-2.8c-10.5-17.4-28.9,5.3-28.9,5.3l-3.5-12.6
	l-10.6,0l0,9.4C32.4-29.2,15.6-38.4,0.2-38.4l0,0c-21,0-38,17.1-38,38.1c0,21,17.1,38,38.1,38c15.4,0,32.2-9.2,40-22.4l0,9l9.4-0.2
	c0,0,3.8-10.3,4.9-13.9c13.6,21.6,45.1,17.1,52.4,7.6c-0.1,3.9,0.8,7.5,0.8,7.5l7.4-1.6l-0.4,9.9c0,0,26.6-17.6,31.7-21
	c13.1,25.3,30.1,4.1,30.1,4.1l5.2,14l8-15.6l8.3,9c0,0,1.9-7.8,2.5-12.3c40.8,24.6,70.5-5.2,93.5-7.9c23-2.7,50.2-2.7,77.6-0.1
	l-2,14.6c0,0,24.4-12.2,30.8-12.3c6-0.1,107.4-2.5,121-2.8c1,0.1,2.3-0.4,2.4-1.8c0-1.1,0-2.3,0-3.4C523.9-3.2,523.4-3.9,522.1-4.1z
	 M0.1,6c-3.3,0-6-2.7-6-6c0-3.3,2.7-6,6-6s6,2.7,6,6C6.1,3.3,3.4,6,0.1,6z M83.2,17.9c-26.6-0.2-26.4-29.2-14.5-33.3v0
	c6.9,19.4,13.9,7.4,14.3,4.2c0.2,3.3,8.5,16.5,15.5-3.3C109.4-8.5,109.7,18,83.2,17.9z M168.8,13.6c-7.3,4.8-17.4-2.2-19.3-9.1v0
	c-8.4,5-25.2,14.6-25.2,14.6s7-29.3,26.4-30.4C176-12.7,176.1,8.9,168.8,13.6z"/>
</svg>
