<?xml version="1.0" encoding="utf-8"?>
<!-- Generator: Adobe Illustrator 17.1.0, SVG Export Plug-In . SVG Version: 6.00 Build 0)  -->
<!DOCTYPE svg PUBLIC "-//W3C//DTD SVG 1.1//EN" "http://www.w3.org/Graphics/SVG/1.1/DTD/svg11.dtd">
<svg version="1.1" id="Layer_1" xmlns="http://www.w3.org/2000/svg" xmlns:xlink="http://www.w3.org/1999/xlink" x="0px" y="0px"
	 viewBox="0 0 1224 792" enable-background="new 0 0 1224 792" xml:space="preserve">
<path stroke="#000000" stroke-miterlimit="10" d="M592.2,407.8c-0.3,0-0.6,0-0.9,0.1c-0.3,1.1-0.7,2.2-1,3.2c1.1-0.7,2.2-1.4,3.3-2
	C593,408.7,592.6,408.2,592.2,407.8z"/>
<path stroke="#000000" stroke-miterlimit="10" d="M591.5,407.1c-0.1,0.2-0.2,0.5-0.2,0.7c0.3,0,0.6,0,0.9-0.1
	C591.9,407.6,591.7,407.4,591.5,407.1z"/>
<path stroke="#000000" stroke-miterlimit="10" d="M543,356c2.5,5.6,5.1,11.2,7.8,16.8c1.8-0.8,3.6-1.5,5.3-2.3
	c-4.6-5.1-9.2-10.4-13.7-15.7C542.6,355.2,542.8,355.6,543,356z"/>
<path stroke="#000000" stroke-miterlimit="10" d="M542.5,354.7c-1.6-1.9-3.2-3.8-4.8-5.8c-6.6,10.4-11.1,22.3-12.8,35.1
	c8.6-3.8,17.3-7.6,26-11.3c-2.7-5.5-5.3-11.1-7.8-16.8C542.8,355.6,542.6,355.2,542.5,354.7z"/>
<path stroke="#000000" stroke-miterlimit="10" d="M556.1,370.5c-1.8,0.8-3.6,1.5-5.3,2.3c5.9,12.4,12.1,24.5,18.5,36.4
	c7.3-0.4,14.6-0.9,21.9-1.3c0.1-0.2,0.2-0.5,0.2-0.7C579.4,395.4,567.6,383.2,556.1,370.5z"/>
<path stroke="#000000" stroke-miterlimit="10" d="M524.8,384.1c-0.5,3.9-0.8,7.9-0.8,11.9c0,5.2,0.5,10.3,1.3,15.3
	c14.7-0.5,29.3-1.3,44-2.2c-6.4-11.9-12.6-24.1-18.5-36.4C542.1,376.5,533.5,380.2,524.8,384.1z"/>
<path stroke="#000000" stroke-miterlimit="10" d="M590.2,411.1c0.3-1.1,0.7-2.2,1-3.2c-7.3,0.4-14.6,0.9-21.9,1.3
	c2,3.7,4,7.4,6.1,11.1C580.3,417.2,585.2,414.1,590.2,411.1z"/>
<path stroke="#000000" stroke-miterlimit="10" d="M575.4,420.3c-2-3.7-4.1-7.4-6.1-11.1c-14.6,0.8-29.3,1.6-44,2.2
	c2.1,11.9,6.6,23,12.9,32.7C550.6,436,562.9,428.1,575.4,420.3z"/>
<path stroke="#000000" stroke-miterlimit="10" d="M537.6,348.9c1.6,1.9,3.2,3.9,4.8,5.8c-1.1-2.6-2.3-5.2-3.5-7.8
	C538.5,347.6,538.1,348.3,537.6,348.9z"/>
<path stroke="#000000" stroke-miterlimit="10" d="M539,346.9c1.2,2.6,2.4,5.2,3.5,7.8c4.5,5.3,9.1,10.6,13.7,15.7
	c17.9-7.6,35.8-15.2,53.6-22.9c0.1-0.2,0.1-0.4,0.2-0.6c-17.2-7.2-34.5-14.2-52-20.4C550.6,332.3,544.2,339.2,539,346.9z"/>
<path stroke="#000000" stroke-miterlimit="10" d="M603.3,308.4c-17,1.7-32.6,8.2-45.4,18.2c17.5,6.2,34.8,13.2,52,20.4
	c1.7-6,3.4-12,5.1-18C610.6,322.2,606.8,315.4,603.3,308.4z"/>
<path stroke="#000000" stroke-miterlimit="10" d="M591.5,407.1c6.4-19.8,12.5-39.6,18.3-59.5c-17.8,7.7-35.7,15.2-53.6,22.9
	C567.6,383.2,579.4,395.4,591.5,407.1z"/>
<path stroke="#000000" stroke-miterlimit="10" d="M620.5,308.4c-2.8-0.3-5.6-0.4-8.5-0.4c-2.9,0-5.8,0.1-8.7,0.4
	c3.4,6.9,7.3,13.8,11.7,20.6C616.9,322.1,618.7,315.3,620.5,308.4z"/>
<path stroke="#000000" stroke-miterlimit="10" d="M609.7,347.6c0.3-0.1,0.5-0.2,0.8-0.3c-0.2-0.1-0.4-0.2-0.6-0.2
	C609.9,347.2,609.8,347.4,609.7,347.6z"/>
<path stroke="#000000" stroke-miterlimit="10" d="M617,332c-0.7-1-1.4-2-2-3c-1.6,6-3.3,12-5.1,18c0.2,0.1,0.4,0.2,0.6,0.2
	c4.2-1.8,8.5-3.7,12.7-5.5C621.2,338.5,619.1,335.2,617,332z"/>
<path stroke="#000000" stroke-miterlimit="10" d="M609.7,347.6c-5.8,19.9-11.9,39.8-18.3,59.5c0.2,0.2,0.5,0.5,0.7,0.7
	c1.3-0.1,2.5-0.2,3.8-0.2c16.2-9.8,32.5-19.3,49-28.4c-4.2-7.7-8.5-15.3-13-23c-7.1-3-14.3-6-21.4-9
	C610.3,347.4,610,347.5,609.7,347.6z"/>
<path stroke="#000000" stroke-miterlimit="10" d="M610.5,347.3c7.1,3,14.3,6,21.4,9c-2.8-4.8-5.7-9.6-8.7-14.5
	C619,343.6,614.7,345.4,610.5,347.3z"/>
<path stroke="#000000" stroke-miterlimit="10" d="M645,379.2c6.2-3.4,12.5-6.7,18.7-10c-10.6-4.2-21.2-8.5-31.8-12.9
	C636.4,363.9,640.7,371.5,645,379.2z"/>
<path stroke="#000000" stroke-miterlimit="10" d="M662.6,324c-13.1,6.1-26.2,12-39.4,17.8c3,4.8,5.9,9.6,8.7,14.5
	c10.6,4.4,21.1,8.8,31.8,12.9c8.8-4.6,17.7-9.1,26.6-13.4C683.8,343.1,674.2,332.2,662.6,324z"/>
<path stroke="#000000" stroke-miterlimit="10" d="M623.2,341.8c13.2-5.8,26.3-11.6,39.4-17.8c-12.1-8.5-26.5-14.1-42.1-15.6
	c-1.8,6.9-3.6,13.7-5.5,20.6c0.7,1,1.3,2,2,3C619.1,335.2,621.2,338.5,623.2,341.8z"/>
<path stroke="#000000" stroke-miterlimit="10" d="M595.9,407.6c-1.3,0.1-2.5,0.2-3.8,0.2c0.4,0.4,0.9,0.8,1.3,1.3
	C594.3,408.6,595.1,408.1,595.9,407.6z"/>
<path stroke="#000000" stroke-miterlimit="10" d="M582.8,433.7c-1.4,4.4-2.9,8.8-4.3,13.2c3.6-0.5,7.3-1.1,11-1.5
	C587.2,441.4,585,437.5,582.8,433.7z"/>
<path stroke="#000000" stroke-miterlimit="10" d="M578.5,446.8c-2.9,8.8-5.8,17.6-8.7,26.4c12.5,6.9,26.9,10.8,42.2,10.8
	c0,0,0,0,0,0c-7.6-12.9-15.1-25.8-22.6-38.7C585.8,445.7,582.1,446.3,578.5,446.8z"/>
<path stroke="#000000" stroke-miterlimit="10" d="M593.5,409.1c-1.1,0.7-2.2,1.4-3.3,2c-2.4,7.5-4.9,15-7.4,22.5
	c2.2,3.9,4.4,7.8,6.6,11.6c13.2-1.7,26.4-3,39.6-4.2C616.9,430.8,605,420.2,593.5,409.1z"/>
<path stroke="#000000" stroke-miterlimit="10" d="M589.4,445.3c7.4,13,15,25.8,22.6,38.7c10,0,19.5-1.7,28.5-4.7
	c3.4-6.9,6.6-13.8,9.9-20.8c-7.2-5.7-14.3-11.5-21.3-17.4C615.8,442.3,602.6,443.6,589.4,445.3z"/>
<path stroke="#000000" stroke-miterlimit="10" d="M640.5,479.3c8-2.7,15.4-6.5,22.2-11.3c-4.1-3.1-8.2-6.3-12.3-9.5
	C647.1,465.4,643.8,472.4,640.5,479.3z"/>
<path stroke="#000000" stroke-miterlimit="10" d="M590.2,411.1c-5,3-9.9,6.1-14.8,9.2c2.5,4.5,4.9,8.9,7.5,13.4
	C585.3,426.1,587.8,418.6,590.2,411.1z"/>
<path stroke="#000000" stroke-miterlimit="10" d="M582.8,433.7c-2.5-4.4-5-8.9-7.5-13.4c-12.4,7.8-24.8,15.7-37.1,23.7
	c2.1,3.2,4.3,6.2,6.8,9.1c11.1-2.6,22.2-4.6,33.4-6.3C579.9,442.4,581.4,438,582.8,433.7z"/>
<path stroke="#000000" stroke-miterlimit="10" d="M545.1,453.1c6.9,8.1,15.3,14.9,24.7,20.1c2.9-8.8,5.8-17.6,8.7-26.4
	C567.3,448.5,556.1,450.5,545.1,453.1z"/>
<path stroke="#000000" stroke-miterlimit="10" d="M698.9,382.2c-0.9-5.4-2.2-10.6-4-15.7c-2.1,4-4.2,8-6.3,12c1.5,0.5,2.9,1,4.4,1.5
	C695,380.7,697,381.4,698.9,382.2z"/>
<path stroke="#000000" stroke-miterlimit="10" d="M693,380c-1.5-0.5-2.9-1-4.4-1.5c-4.3,8.4-8.5,16.9-12.6,25.5
	c7.9-0.2,15.8-0.2,23.7-0.2c0.2-2.5,0.3-5.1,0.3-7.7c0-4.7-0.4-9.3-1.1-13.8C697,381.4,695,380.7,693,380z"/>
<path stroke="#000000" stroke-miterlimit="10" d="M595.9,407.6c20.9-1.3,41.8-2.5,62.8-3.2c-4.6-8.4-9.1-16.8-13.8-25.2
	C628.4,388.3,612.1,397.8,595.9,407.6z"/>
<path stroke="#000000" stroke-miterlimit="10" d="M645,379.2c4.7,8.4,9.2,16.9,13.8,25.2c5.8-0.2,11.5-0.4,17.3-0.5
	c4.1-8.5,8.3-17,12.6-25.5c-8.4-2.9-16.7-6.1-25-9.3C657.4,372.4,651.2,375.8,645,379.2z"/>
<path stroke="#000000" stroke-miterlimit="10" d="M690.3,355.8c-8.9,4.3-17.8,8.8-26.6,13.4c8.3,3.2,16.6,6.4,25,9.3
	c2.1-4,4.1-8,6.3-12C693.6,362.8,692.1,359.2,690.3,355.8z"/>
<path stroke="#000000" stroke-miterlimit="10" d="M659.7,438.4c-10.2,0.9-20.5,1.7-30.7,2.6c7,5.9,14.1,11.7,21.3,17.4
	C653.5,451.8,656.6,445.1,659.7,438.4z"/>
<path stroke="#000000" stroke-miterlimit="10" d="M667.9,421.1c-3.1-5.5-6.1-11.1-9.1-16.6c-21,0.7-41.9,1.9-62.8,3.2
	c-0.8,0.5-1.6,1-2.5,1.5c11.6,11.1,23.4,21.7,35.6,32c10.2-0.9,20.4-1.7,30.7-2.6C662.4,432.6,665.1,426.8,667.9,421.1z"/>
<path stroke="#000000" stroke-miterlimit="10" d="M658.7,404.4c3,5.6,6.1,11.1,9.1,16.6c2.7-5.7,5.4-11.4,8.1-17.1
	C670.2,404,664.5,404.2,658.7,404.4z"/>
<path stroke="#000000" stroke-miterlimit="10" d="M667.9,421.1c-2.7,5.8-5.4,11.6-8.1,17.4c5.7-0.5,11.4-1,17.1-1.6
	C673.8,431.6,670.8,426.3,667.9,421.1z"/>
<path stroke="#000000" stroke-miterlimit="10" d="M659.7,438.4c-3.1,6.7-6.2,13.4-9.4,20c4.1,3.2,8.1,6.4,12.3,9.5
	c7.9-5.6,14.9-12.5,20.6-20.4c-2.2-3.6-4.3-7.2-6.4-10.8C671.2,437.4,665.4,437.9,659.7,438.4z"/>
<path stroke="#000000" stroke-miterlimit="10" d="M699.7,403.7c-7.9,0-15.8,0-23.7,0.2c-2.7,5.7-5.4,11.4-8.1,17.1
	c2.9,5.3,5.9,10.6,9,15.8c4.6-0.5,9.2-0.9,13.8-1.5C695.6,425.7,698.7,415,699.7,403.7z"/>
<path stroke="#000000" stroke-miterlimit="10" d="M690.7,435.4c-4.6,0.5-9.2,1-13.8,1.5c2.1,3.6,4.2,7.2,6.4,10.8
	C686.1,443.8,688.5,439.7,690.7,435.4z"/>
</svg>
